<svg width="80" height="80" viewBox="0 0 80 80" fill="none" xmlns="http://www.w3.org/2000/svg">
<path fill-rule="evenodd" clip-rule="evenodd" d="M22.936 39.9858C10.6461 39.9858 0.683105 30.0228 0.683105 17.7329V0.642776H40.0261V39.9858H22.936ZM9.8289 20.3144H33.7845C34.1107 24.1438 32.2698 31.8028 22.2961 31.8028C12.3223 31.8028 9.8289 24.1438 9.8289 20.3144Z" fill="#C8C7C7"/>
<path fill-rule="evenodd" clip-rule="evenodd" d="M57.1485 39.9858C69.4384 39.9858 79.4013 49.9487 79.4013 62.2386V79.3288H40.0583V39.9858H57.1485ZM69.6215 60.1546C69.7493 61.655 69.0807 63.9114 67.4988 65.7997C65.9354 67.6659 63.5051 69.1409 60.1363 69.1409C57.1139 69.1409 54.526 67.6709 52.6801 65.7693C50.8155 63.8482 49.7974 61.5821 49.7974 60.107H48.6751C48.6751 61.98 49.8953 64.5114 51.8748 66.5509C53.8731 68.6097 56.7352 70.2632 60.1363 70.2632C63.8702 70.2632 66.6046 68.6147 68.3591 66.5204C70.095 64.4482 70.8972 61.9071 70.7397 60.0594L69.6215 60.1546Z" fill="#C8C7C7"/>
<path fill-rule="evenodd" clip-rule="evenodd" d="M79.4013 39.9858H62.3112C50.0213 39.9858 40.0583 30.0229 40.0583 17.733V0.642815H79.4013V39.9858ZM50.4694 13.7352C49.8872 14.4285 49.6559 15.2429 49.6993 15.7504L48.7876 15.8283C48.72 15.0369 49.0606 13.99 49.7686 13.1468C50.4917 12.2856 51.6198 11.6093 53.1492 11.6093C54.552 11.6093 55.7233 12.2897 56.533 13.122C57.3273 13.9384 57.8452 14.9773 57.8452 15.7893H56.9301C56.9301 15.3025 56.5777 14.4801 55.8771 13.76C55.192 13.0558 54.2441 12.5244 53.1492 12.5244C51.9166 12.5244 51.0364 13.0599 50.4694 13.7352ZM63.7228 15.7506C63.6795 15.2424 63.9102 14.4277 64.49 13.7345C65.0547 13.0593 65.9309 12.5243 67.1573 12.5243C68.2466 12.5243 69.1902 13.0552 69.8726 13.7594C70.5702 14.4793 70.9216 15.3018 70.9216 15.7893H71.8366C71.8366 14.9779 71.321 13.9392 70.5297 13.1226C69.7232 12.2903 68.5559 11.6093 67.1573 11.6093C65.6327 11.6093 64.5084 12.2862 63.7881 13.1475C63.0828 13.9907 62.7438 15.0373 62.811 15.8281L63.7228 15.7506Z" fill="white"/>
<path fill-rule="evenodd" clip-rule="evenodd" d="M17.7733 39.9858H0.683105V79.3288H40.0261V62.2386C40.0261 49.9487 30.0632 39.9858 17.7733 39.9858ZM17.1782 55.9833C17.1782 58.0126 15.5332 59.6577 13.5039 59.6577C11.4746 59.6577 9.82951 58.0126 9.82951 55.9833C9.82951 53.954 11.4746 52.3089 13.5039 52.3089C15.5332 52.3089 17.1782 53.954 17.1782 55.9833ZM31.0412 55.9833C31.0412 58.0126 29.3962 59.6577 27.3669 59.6577C25.3376 59.6577 23.6925 58.0126 23.6925 55.9833C23.6925 53.954 25.3376 52.3089 27.3669 52.3089C29.3962 52.3089 31.0412 53.954 31.0412 55.9833Z" fill="white"/>
</svg>
